<svg width="48" height="48" viewBox="0 0 48 48" fill="none" xmlns="http://www.w3.org/2000/svg" role="img" aria-label="Little Scout">
  <defs>
    <linearGradient id="ls-sky" x1="8" y1="4" x2="40" y2="44" gradientUnits="userSpaceOnUse">
      <stop offset="0" stop-color="#63C0EC"></stop>
      <stop offset="0.55" stop-color="#3FA7D6"></stop>
      <stop offset="1" stop-color="#2B8CBC"></stop>
    </linearGradient>
    <linearGradient id="ls-fur" x1="12" y1="14" x2="32" y2="40" gradientUnits="userSpaceOnUse">
      <stop offset="0" stop-color="#F08A4A"></stop>
      <stop offset="1" stop-color="#D9692E"></stop>
    </linearGradient>
    <radialGradient id="ls-star" cx="0.5" cy="0.5" r="0.5">
      <stop offset="0" stop-color="#FFE3A6"></stop>
      <stop offset="1" stop-color="#FBA63C"></stop>
    </radialGradient>
    <linearGradient id="ls-sheen" x1="0" y1="2" x2="0" y2="26" gradientUnits="userSpaceOnUse">
      <stop offset="0" stop-color="#FFFFFF" stop-opacity="0.30"></stop>
      <stop offset="1" stop-color="#FFFFFF" stop-opacity="0"></stop>
    </linearGradient>
  </defs>

  
  <rect x="2" y="2" width="44" height="44" rx="14" fill="url(#ls-sky)"></rect>
  <rect x="2" y="2" width="44" height="22" rx="14" fill="url(#ls-sheen)"></rect>

  
  <g>
    <circle cx="37.5" cy="11.5" r="5.5" fill="#FFFFFF" opacity="0.18"></circle>
    <path d="M37.5 7 L38.7 10.3 L42 11.5 L38.7 12.7 L37.5 16 L36.3 12.7 L33 11.5 L36.3 10.3 Z" fill="url(#ls-star)"></path>
  </g>

  
  <rect x="11" y="26" width="12" height="14" rx="4.5" fill="#1E6FA0"></rect>
  <rect x="13.5" y="29" width="7" height="3" rx="1.5" fill="#FBA63C"></rect>

  
  <path d="M15 40 C13 32 16 27 22 27 C29 27 32 32 31 40 Z" fill="url(#ls-fur)"></path>
  
  <path d="M20 40 C19 34 21 31 23.5 31 C26 31 27.5 34 26.5 40 Z" fill="#F6B584" opacity="0.65"></path>
  
  <path d="M17.5 28 L25 39" stroke="#2B8CBC" stroke-width="2.4" stroke-linecap="round"></path>

  
  <path d="M27 31 C31 29 34 24 36 18" stroke="url(#ls-fur)" stroke-width="4.2" stroke-linecap="round" fill="none"></path>
  <circle cx="36.2" cy="17.4" r="2.6" fill="#E07B45"></circle>

  
  <path d="M13.5 20 L11 11 L19 16 Z" fill="url(#ls-fur)"></path>
  <path d="M14.5 18.5 L13 13 L18 16 Z" fill="#F6B584"></path>
  <path d="M27.5 18 L29.5 10.5 L23 14.5 Z" fill="#D9692E"></path>
  <path d="M26.5 17 L28 12 L24 14.5 Z" fill="#E89A6A"></path>

  
  <ellipse cx="20.5" cy="22" rx="9" ry="8.2" fill="url(#ls-fur)"></ellipse>
  
  <ellipse cx="16.5" cy="23" rx="4" ry="4.2" fill="#C95E28" opacity="0.35"></ellipse>

  
  <ellipse cx="24" cy="24.5" rx="6" ry="5" fill="#FBE3CE"></ellipse>

  
  <ellipse cx="19" cy="20" rx="2.5" ry="2.8" fill="#FFFFFF"></ellipse>
  <ellipse cx="25" cy="19.6" rx="2.3" ry="2.7" fill="#FFFFFF"></ellipse>
  <circle cx="19.9" cy="19.3" r="1.5" fill="#2C2722"></circle>
  <circle cx="25.7" cy="18.9" r="1.4" fill="#2C2722"></circle>
  <circle cx="20.4" cy="18.7" r="0.5" fill="#FFFFFF"></circle>
  <circle cx="26.1" cy="18.3" r="0.45" fill="#FFFFFF"></circle>

  
  <path d="M16.8 16.8 Q19 15.6 21.2 16.6" stroke="#C95E28" stroke-width="1.3" stroke-linecap="round" fill="none"></path>
  <path d="M23.4 16.4 Q25.6 15.4 27.4 16.4" stroke="#C95E28" stroke-width="1.2" stroke-linecap="round" fill="none"></path>

  
  <ellipse cx="27.3" cy="23.2" rx="1.9" ry="1.5" fill="#2C2722"></ellipse>
  <ellipse cx="26.7" cy="22.7" rx="0.6" ry="0.45" fill="#FFFFFF" opacity="0.5"></ellipse>

  
  <path d="M23.5 26.6 Q25.5 28.4 27.6 26.8" stroke="#2C2722" stroke-width="1.2" stroke-linecap="round" fill="none"></path>
</svg>